<svg data-v-423bf9ae="" xmlns="http://www.w3.org/2000/svg" viewBox="0 0 370.3053277358963 185" class="iconAbove"><!----><!----><!----><g data-v-423bf9ae="" id="e8f327d0-e8a4-421d-a87c-b094fed04600" fill="white" transform="matrix(5.725190568780254,0,0,5.725190568780254,-7.270992073366585,106.01771771340273)"><path d="M1.27 13.55L1.27 3.16L2.62 3.16L2.62 13.55L1.27 13.55ZM8.36 13.64L8.36 13.64Q7.25 13.64 6.37 13.15L6.37 13.15L6.37 13.15Q5.49 12.66 4.99 11.79L4.99 11.79L4.99 11.79Q4.49 10.93 4.49 9.84L4.49 9.84L4.49 9.84Q4.49 8.75 4.99 7.89L4.99 7.89L4.99 7.89Q5.49 7.03 6.37 6.54L6.37 6.54L6.37 6.54Q7.25 6.06 8.36 6.06L8.36 6.06L8.36 6.06Q9.46 6.06 10.34 6.54L10.34 6.54L10.34 6.54Q11.21 7.03 11.71 7.89L11.71 7.89L11.71 7.89Q12.21 8.75 12.21 9.84L12.21 9.84L12.21 9.84Q12.21 10.93 11.71 11.79L11.71 11.79L11.71 11.79Q11.21 12.66 10.34 13.15L10.34 13.15L10.34 13.15Q9.46 13.64 8.36 13.64L8.36 13.64ZM8.36 12.46L8.36 12.46Q9.07 12.46 9.64 12.13L9.64 12.13L9.64 12.13Q10.21 11.80 10.53 11.21L10.53 11.21L10.53 11.21Q10.85 10.61 10.85 9.84L10.85 9.84L10.85 9.84Q10.85 9.07 10.53 8.48L10.53 8.48L10.53 8.48Q10.21 7.88 9.64 7.56L9.64 7.56L9.64 7.56Q9.07 7.24 8.36 7.24L8.36 7.24L8.36 7.24Q7.64 7.24 7.08 7.56L7.08 7.56L7.08 7.56Q6.51 7.88 6.18 8.48L6.18 8.48L6.18 8.48Q5.85 9.07 5.85 9.84L5.85 9.84L5.85 9.84Q5.85 10.61 6.18 11.21L6.18 11.21L6.18 11.21Q6.51 11.80 7.08 12.13L7.08 12.13L7.08 12.13Q7.64 12.46 8.36 12.46L8.36 12.46ZM16.77 6.06L16.77 6.06Q18.31 6.06 19.13 6.82L19.13 6.82L19.13 6.82Q19.95 7.57 19.95 9.07L19.95 9.07L19.95 13.55L18.68 13.55L18.68 12.57L18.68 12.57Q18.34 13.09 17.72 13.36L17.72 13.36L17.72 13.36Q17.09 13.64 16.24 13.64L16.24 13.64L16.24 13.64Q14.99 13.64 14.25 13.03L14.25 13.03L14.25 13.03Q13.50 12.43 13.50 11.45L13.50 11.45L13.50 11.45Q13.50 10.47 14.21 9.88L14.21 9.88L14.21 9.88Q14.92 9.28 16.48 9.28L16.48 9.28L18.61 9.28L18.61 9.02L18.61 9.02Q18.61 8.15 18.10 7.69L18.10 7.69L18.10 7.69Q17.60 7.22 16.62 7.22L16.62 7.22L16.62 7.22Q15.96 7.22 15.33 7.44L15.33 7.44L15.33 7.44Q14.70 7.66 14.27 8.02L14.27 8.02L13.71 7.01L13.71 7.01Q14.28 6.55 15.08 6.31L15.08 6.31L15.08 6.31Q15.88 6.06 16.77 6.06L16.77 6.06ZM16.46 12.60L16.46 12.60Q17.23 12.60 17.79 12.26L17.79 12.26L17.79 12.26Q18.35 11.91 18.61 11.28L18.61 11.28L18.61 10.25L16.53 10.25L16.53 10.25Q14.83 10.25 14.83 11.40L14.83 11.40L14.83 11.40Q14.83 11.96 15.26 12.28L15.26 12.28L15.26 12.28Q15.69 12.60 16.46 12.60L16.46 12.60ZM26.40 6.06L26.40 6.06Q27.82 6.06 28.65 6.88L28.65 6.88L28.65 6.88Q29.48 7.70 29.48 9.28L29.48 9.28L29.48 13.55L28.14 13.55L28.14 9.44L28.14 9.44Q28.14 8.36 27.62 7.81L27.62 7.81L27.62 7.81Q27.10 7.27 26.14 7.27L26.14 7.27L26.14 7.27Q25.05 7.27 24.42 7.90L24.42 7.90L24.42 7.90Q23.79 8.54 23.79 9.73L23.79 9.73L23.79 13.55L22.44 13.55L22.44 6.13L23.73 6.13L23.73 7.25L23.73 7.25Q24.14 6.68 24.83 6.37L24.83 6.37L24.83 6.37Q25.52 6.06 26.40 6.06L26.40 6.06ZM45.02 6.06L45.02 6.06Q46.42 6.06 47.24 6.87L47.24 6.87L47.24 6.87Q48.06 7.69 48.06 9.28L48.06 9.28L48.06 13.55L46.72 13.55L46.72 9.44L46.72 9.44Q46.72 8.36 46.22 7.81L46.22 7.81L46.22 7.81Q45.72 7.27 44.80 7.27L44.80 7.27L44.80 7.27Q43.78 7.27 43.18 7.90L43.18 7.90L43.18 7.90Q42.57 8.54 42.57 9.73L42.57 9.73L42.57 13.55L41.23 13.55L41.23 9.44L41.23 9.44Q41.23 8.36 40.73 7.81L40.73 7.81L40.73 7.81Q40.24 7.27 39.31 7.27L39.31 7.27L39.31 7.27Q38.29 7.27 37.69 7.90L37.69 7.90L37.69 7.90Q37.09 8.54 37.09 9.73L37.09 9.73L37.09 13.55L35.74 13.55L35.74 6.13L37.03 6.13L37.03 7.24L37.03 7.24Q37.44 6.66 38.09 6.36L38.09 6.36L38.09 6.36Q38.75 6.06 39.59 6.06L39.59 6.06L39.59 6.06Q40.46 6.06 41.13 6.41L41.13 6.41L41.13 6.41Q41.80 6.76 42.17 7.43L42.17 7.43L42.17 7.43Q42.59 6.79 43.34 6.43L43.34 6.43L43.34 6.43Q44.09 6.06 45.02 6.06L45.02 6.06ZM53.24 6.06L53.24 6.06Q54.78 6.06 55.60 6.82L55.60 6.82L55.60 6.82Q56.42 7.57 56.42 9.07L56.42 9.07L56.42 13.55L55.15 13.55L55.15 12.57L55.15 12.57Q54.81 13.09 54.19 13.36L54.19 13.36L54.19 13.36Q53.56 13.64 52.71 13.64L52.71 13.64L52.71 13.64Q51.46 13.64 50.71 13.03L50.71 13.03L50.71 13.03Q49.97 12.43 49.97 11.45L49.97 11.45L49.97 11.45Q49.97 10.47 50.68 9.88L50.68 9.88L50.68 9.88Q51.39 9.28 52.95 9.28L52.95 9.28L55.08 9.28L55.08 9.02L55.08 9.02Q55.08 8.15 54.57 7.69L54.57 7.69L54.57 7.69Q54.07 7.22 53.09 7.22L53.09 7.22L53.09 7.22Q52.43 7.22 51.80 7.44L51.80 7.44L51.80 7.44Q51.17 7.66 50.74 8.02L50.74 8.02L50.18 7.01L50.18 7.01Q50.75 6.55 51.55 6.31L51.55 6.31L51.55 6.31Q52.35 6.06 53.24 6.06L53.24 6.06ZM52.93 12.60L52.93 12.60Q53.70 12.60 54.26 12.26L54.26 12.26L54.26 12.26Q54.82 11.91 55.08 11.28L55.08 11.28L55.08 10.25L53.00 10.25L53.00 10.25Q51.30 10.25 51.30 11.40L51.30 11.40L51.30 11.40Q51.30 11.96 51.73 12.28L51.73 12.28L51.73 12.28Q52.16 12.60 52.93 12.60L52.93 12.60ZM62.87 6.06L62.87 6.06Q64.29 6.06 65.12 6.88L65.12 6.88L65.12 6.88Q65.95 7.70 65.95 9.28L65.95 9.28L65.95 13.55L64.61 13.55L64.61 9.44L64.61 9.44Q64.61 8.36 64.09 7.81L64.09 7.81L64.09 7.81Q63.57 7.27 62.61 7.27L62.61 7.27L62.61 7.27Q61.52 7.27 60.89 7.90L60.89 7.90L60.89 7.90Q60.26 8.54 60.26 9.73L60.26 9.73L60.26 13.55L58.91 13.55L58.91 6.13L60.20 6.13L60.20 7.25L60.20 7.25Q60.61 6.68 61.30 6.37L61.30 6.37L61.30 6.37Q61.99 6.06 62.87 6.06L62.87 6.06Z"></path></g><!----><g data-v-423bf9ae="" id="64c1ea07-b8f5-4b74-883b-4c278bb487e6" transform="matrix(1.1111021253797744,0,0,1.1111021253797744,129.9587077345236,0.4453648804580439)" stroke="none" fill="white"><path d="M37.039 20.894h26.345l2.408-3.436c1.967-2.965 4.134-5.805 6.009-8.83.89-1.437 2.558-3.789 1.901-5.609-.469-1.3-1.669-1.743-2.955-1.969-.93-.163-5.684-1.364-7.603-.972-1.703.349-3.276 1.157-4.91 1.725-2.301.8-4.848 1.471-7.372 1.333-2.181-.119-4.659-.398-6.715-1.141-1.704-.617-3.35-1.525-5.153-1.834-1.557-.267-7.228.519-8.369.715-8.031 1.382-2.192 7.493 4.006 16.582l2.408 3.436zm58.042 48.181c-6.754-15.562-18.983-32.532-31.794-40.719h-26.58C23.899 36.545 11.672 53.516 4.92 69.075c-6.77 15.598 1.351 30.924 16.825 30.924h56.511c15.474 0 23.595-15.326 16.825-30.924zM52.47 83.203v6.316h-5.029v-5.948c-3.863-.122-7.726-1.226-9.935-2.698l1.657-5.765c2.392 1.411 5.826 2.698 9.567 2.698 3.863 0 6.5-1.901 6.5-4.844 0-2.76-2.147-4.539-6.685-6.194-6.44-2.331-10.61-5.274-10.61-10.978 0-5.274 3.679-9.321 9.873-10.425v-6.01h5.029v5.703c3.863.123 6.5 1.042 8.463 2.024l-1.655 5.641c-1.473-.675-4.171-2.085-8.341-2.085-4.292 0-5.825 2.208-5.825 4.294 0 2.514 2.208 3.923 7.419 6.009 6.869 2.576 9.936 5.888 9.936 11.345 0 5.215-3.618 9.814-10.364 10.917z"></path></g><!----></svg>